# xmcd
#
# Track frame offsets:
#	150
#	11445
#	22274
#	33436
#	47127
#	60027
#	72683
#	84863
#	97207
#	107783
#	121313
#	131208
#	142761
#	155428
#	166422
#
# Disc length: 2362 seconds
# Revision: 0
# Processed by: cddbd v1.5.2PL0 Copyright (c) Steve Scherf et al.
# Submitted via: dBpowerAMP V12.0
#
DISCID=c809380f
DTITLE=Big Country Bluegrass - The Boys In Hats and Ties
DYEAR=2010
DGENRE=Bluegrass
TTITLE0=The Boys In Hats and Ties
TTITLE1=All the Way To Nothing
TTITLE2=Black Mountain Special
TTITLE3=Music For the Soul
TTITLE4=Prodigal 5
TTITLE5=The First Rose
TTITLE6=Pages of Time
TTITLE7=Lonely Old Man
TTITLE8=Top Hat Ramble
TTITLE9=You Don't Have Far To Go
TTITLE10=Yesterday I Didn't Know
TTITLE11=Foggy Old London
TTITLE12=Wreck On the Highway
TTITLE13=Rendezvous
TTITLE14=I'm Gonna Walk the Streets of Gold
EXTD=
EXTT0=
EXTT1=
EXTT2=
EXTT3=
EXTT4=
EXTT5=
EXTT6=
EXTT7=
EXTT8=
EXTT9=
EXTT10=
EXTT11=
EXTT12=
EXTT13=
EXTT14=
PLAYORDER=
